<?xml version="1.0" encoding="UTF-8"?>
<svg width="154px" height="42px" viewBox="0 0 154 42" version="1.1" xmlns="http://www.w3.org/2000/svg" xmlns:xlink="http://www.w3.org/1999/xlink">
    <title>Group 11</title>
    <defs>
        <polygon id="path-1" points="0.3635 0.972 34.4695 0.972 34.4695 39.9207 0.3635 39.9207"></polygon>
        <polygon id="path-3" points="0.4883 0.9805 33.7253 0.9805 33.7253 40 0.4883 40"></polygon>
    </defs>
    <g id="Welcome" stroke="none" stroke-width="1" fill="none" fill-rule="evenodd">
        <g id="HOME" transform="translate(-643.000000, -1079.000000)">
            <g id="Agents-Infos-Copy-2" transform="translate(296.000000, 1034.000000)">
                <g id="Group-4" transform="translate(0.000000, 45.500000)">
                    <g id="Group-11" transform="translate(347.500000, 0.000000)">
                        <g id="Group-3" transform="translate(41.000000, 0.028300)">
                            <mask id="mask-2" fill="white">
                                <use xlink:href="#path-1"></use>
                            </mask>
                            <g id="Clip-2"></g>
                            <path d="M22.2905,30.8437 L9.6925,30.8437 L9.6925,24.3227 L22.5645,24.3227 L22.6035,24.3227 L22.6295,24.3267 C24.2355,24.5177 25.4525,25.8877 25.4525,27.5227 C25.4525,29.2977 24.0155,30.8207 22.2905,30.8437 L22.2905,30.8437 Z M9.6925,9.4447 L22.8785,9.4447 L22.9285,9.4447 L22.9755,9.4577 C24.4725,9.7257 25.5605,11.0317 25.5605,12.5657 C25.5605,14.1337 24.3945,15.6117 22.8525,15.8277 L9.7015,15.8467 L9.6925,9.4447 Z M28.4355,19.8487 C33.2625,18.2027 34.1345,14.0357 34.1225,10.6417 C34.1135,5.4577 30.5545,0.9747 20.0235,0.9747 L0.3635,0.9717 L0.3635,39.9207 L19.9715,39.9207 C30.5705,39.9207 34.4695,34.3277 34.4695,28.7247 C34.4695,21.9427 28.4355,19.8487 28.4355,19.8487 L28.4355,19.8487 Z" id="Fill-1" fill="#FFFFFF" mask="url(#mask-2)"></path>
                        </g>
                        <g id="Group-6" transform="translate(119.000000, 0.028300)">
                            <mask id="mask-4" fill="white">
                                <use xlink:href="#path-3"></use>
                            </mask>
                            <g id="Clip-5"></g>
                            <polygon id="Fill-4" fill="#FFFFFF" mask="url(#mask-4)" points="0.4883 0.9805 33.7153 0.9805 33.6993 9.4785 9.7243 9.4785 9.7483 15.7545 31.3603 15.7545 31.3603 24.3005 9.7483 24.3005 9.7483 31.0985 33.7253 31.0985 33.7173 40.0005 0.4883 40.0005"></polygon>
                        </g>
                        <path d="M105.2021,13.1425 C105.0401,14.4275 103.7931,15.8165 102.2351,15.8165 L89.2691,15.8195 L89.2691,9.5815 L102.2411,9.5815 C103.7931,9.5815 105.0061,10.7575 105.2021,12.2925 L105.2021,13.1425 Z M100.1661,1.0595 L80.0761,1.0595 L80.0761,40.0185 L89.2991,40.0185 L89.2991,24.2545 L99.4611,24.2435 C102.3711,24.2885 104.6311,26.7395 104.6311,29.7595 L104.6311,39.9865 L113.6661,39.9835 L113.6501,27.4065 C113.6501,21.5825 108.1721,19.8585 108.1721,19.8585 C108.1721,19.8585 113.7701,18.1405 113.7701,11.2545 C113.7701,2.8255 106.7281,1.0595 100.1661,1.0595 L100.1661,1.0595 Z" id="Fill-7" fill="#FFFFFF"></path>
                        <path d="M35.3794,30.6064 C35.2454,30.6094 22.7654,30.8564 18.4574,30.4234 C11.5234,29.7244 9.0634,24.4394 9.0634,20.1274 C9.0634,14.7504 12.6264,10.7934 18.1524,10.0454 C20.7794,9.6924 35.1514,9.8594 35.3004,9.8624 L35.6044,9.8654 L35.6334,1.0084 L35.3284,1.0084 L19.0654,1.0384 C17.2544,1.1514 14.2524,1.3404 11.1784,2.6314 C8.2274,4.0254 5.6564,6.1584 3.7374,8.8164 C1.2944,12.1994 0.0004,16.2204 0.0004,20.4324 C0.0004,21.7574 0.1054,23.0664 0.3084,24.3324 C1.4824,30.2404 5.2484,35.1314 10.6494,37.7584 C12.4694,38.5824 15.2834,39.5724 20.9544,39.8984 C20.9664,39.8984 24.0104,39.9624 24.0104,39.9624 C24.0104,39.9654 35.3504,39.9784 35.3504,39.9784 L35.6494,39.9784 L35.6804,30.6014 L35.3794,30.6064 Z" id="Fill-9" fill="#FFFFFF"></path>
                    </g>
                </g>
            </g>
        </g>
    </g>
</svg>