<?xml version="1.0" encoding="UTF-8"?>
<svg width="811px" height="7px" viewBox="0 0 811 7" version="1.1" xmlns="http://www.w3.org/2000/svg" xmlns:xlink="http://www.w3.org/1999/xlink">
    <title>Line</title>
    <g id="Welcome" stroke="none" stroke-width="1" fill="none" fill-rule="evenodd">
        <g id="HOME" transform="translate(-318.000000, -1150.000000)" fill="#999999" fill-rule="nonzero">
            <g id="Agents-Infos-Copy-2" transform="translate(296.000000, 1034.000000)">
                <g id="Group-4" transform="translate(0.000000, 45.500000)">
                    <path id="Line" d="M829.75,71 C831.544925,71 833,72.4550746 833,74.25 C833,76.0449254 831.544925,77.5 829.75,77.5 C828.039414,77.5 826.637491,76.1784535 826.509522,74.5006505 L28.740478,74.5006505 C28.6125091,76.1784535 27.2105864,77.5 25.5,77.5 C23.7050746,77.5 22.25,76.0449254 22.25,74.25 C22.25,72.4550746 23.7050746,71 25.5,71 C27.2109265,71 28.6130665,72.322072 28.7405542,74.0003503 L826.509446,74.0003503 C826.636934,72.322072 828.039074,71 829.75,71 Z M25.5,71.5 C23.9812169,71.5 22.75,72.7312169 22.75,74.25 C22.75,75.7687831 23.9812169,77 25.5,77 C27.0187831,77 28.25,75.7687831 28.25,74.25 C28.25,72.7312169 27.0187831,71.5 25.5,71.5 Z M829.75,71.5 C828.231217,71.5 827,72.7312169 827,74.25 C827,75.7687831 828.231217,77 829.75,77 C831.268783,77 832.5,75.7687831 832.5,74.25 C832.5,72.7312169 831.268783,71.5 829.75,71.5 Z"></path>
                </g>
            </g>
        </g>
    </g>
</svg>