<?xml version="1.0" encoding="UTF-8"?>
<svg width="393px" height="303px" viewBox="0 0 393 303" version="1.1" xmlns="http://www.w3.org/2000/svg" xmlns:xlink="http://www.w3.org/1999/xlink">
    <title>Group 5</title>
    <defs>
        <polygon id="path-1" points="0.411465263 0.205778947 91.9590232 0.205778947 91.9590232 98.6818389 0.411465263 98.6818389"></polygon>
        <polygon id="path-3" points="0.890567368 0.205778947 99.3636621 0.205778947 99.3636621 48.6080989 0.890567368 48.6080989"></polygon>
        <polygon id="path-5" points="0.000525 0.15504 21.002625 0.15504 21.002625 33.442536 0.000525 33.442536"></polygon>
        <polygon id="path-7" points="0.204858182 0.15504 31.5536582 0.15504 31.5536582 33.073806 0.204858182 33.073806"></polygon>
    </defs>
    <g id="Welcome" stroke="none" stroke-width="1" fill="none" fill-rule="evenodd">
        <g id="HOME" transform="translate(-523.000000, -154.000000)">
            <g id="Group-5" transform="translate(523.000000, 154.089946)">
                <g id="Group">
                    <g id="Group-3" transform="translate(126.069243, 0.000000)">
                        <mask id="mask-2" fill="white">
                            <use xlink:href="#path-1"></use>
                        </mask>
                        <g id="Clip-2"></g>
                        <path d="M49.6513074,2.50847053 C23.7711495,2.50847053 2.71448632,23.5651337 2.71448632,49.4452916 C2.71448632,75.3254495 23.7711495,96.3788179 49.6513074,96.3788179 L77.0503389,96.3788179 C57.1633074,90.0463337 42.7191811,71.4014179 42.7191811,49.4452916 C42.7191811,27.4858705 57.1633074,8.84095474 77.0503389,2.50847053 L49.6513074,2.50847053 Z M91.9590232,98.6818389 L49.6513074,98.6818389 C22.4993811,98.6818389 0.411465263,76.5939232 0.411465263,49.4452916 C0.411465263,22.2933653 22.4993811,0.205449474 49.6513074,0.205449474 L91.9590232,0.205449474 L91.9590232,2.50847053 C66.0788653,2.50847053 45.0254968,23.5651337 45.0254968,49.4452916 C45.0254968,75.3254495 66.0788653,96.3788179 91.9590232,96.3788179 L91.9590232,98.6818389 Z" id="Fill-1" fill="#EDEDED" mask="url(#mask-2)"></path>
                    </g>
                    <g id="Group-6" transform="translate(167.900822, 0.000000)">
                        <mask id="mask-4" fill="white">
                            <use xlink:href="#path-3"></use>
                        </mask>
                        <g id="Clip-5"></g>
                        <path d="M3.30560947,46.3050779 L96.94862,46.3050779 C95.3309042,21.6505621 74.9891989,2.50814105 50.1271147,2.50814105 C25.2683253,2.50814105 4.92662,21.6505621 3.30560947,46.3050779 L3.30560947,46.3050779 Z M99.3636621,48.6080989 L0.890567368,48.6080989 L0.936693684,47.4088147 C2.01736737,20.9388989 23.6242516,0.20512 50.1271147,0.20512 C76.6332726,0.20512 98.2401568,20.9388989 99.3175358,47.4088147 L99.3636621,48.6080989 Z" id="Fill-4" fill="#EDEDED" mask="url(#mask-4)"></path>
                    </g>
                    <g id="Group-53" transform="translate(0.000000, 217.910054)">
                        <g id="Group-3">
                            <mask id="mask-6" fill="white">
                                <use xlink:href="#path-5"></use>
                            </mask>
                            <g id="Clip-2"></g>
                            <path d="M0.000525,28.902516 L2.217075,26.930856 C3.870825,28.902516 6.748875,30.735456 10.383975,30.735456 C14.960925,30.735456 18.027975,28.535316 18.027975,25.142796 C18.027975,21.519756 15.717975,19.823496 11.893875,18.173136 L8.354325,16.706376 C3.255525,14.597016 1.225875,11.754276 1.225875,7.811976 C1.225875,3.181176 5.944575,0.154836 10.760925,0.154836 C14.725725,0.154836 18.027975,1.895976 20.105925,4.281756 L17.935575,6.253416 C16.187325,4.234836 14.066325,2.859876 10.618125,2.859876 C7.124775,2.859876 4.154325,4.785636 4.154325,7.994556 C4.154325,10.699596 5.522475,12.534576 9.345525,14.093136 L12.885075,15.559896 C17.416875,17.439756 21.002625,20.052996 21.002625,24.730716 C21.002625,29.727696 17.086125,33.442536 10.383975,33.442536 C5.756625,33.442536 1.887375,31.103676 0.000525,28.902516" id="Fill-1" fill="#FFFFFF" mask="url(#mask-6)"></path>
                        </g>
                        <g id="Group-6" transform="translate(46.000000, 0.000000)">
                            <mask id="mask-8" fill="white">
                                <use xlink:href="#path-7"></use>
                            </mask>
                            <g id="Clip-5"></g>
                            <path d="M9.17504,20.420706 L22.5376582,20.420706 L15.8563491,6.344706 L9.17504,20.420706 Z M15.8563491,0.154326 L31.5536582,33.073806 L28.5795491,33.073806 L23.8205673,23.124726 L7.89213091,23.124726 L3.17794909,33.073806 L0.204858182,33.073806 L15.8563491,0.154326 Z" id="Fill-4" fill="#FFFFFF" mask="url(#mask-8)"></path>
                        </g>
                        <polygon id="Fill-7" fill="#FFFFFF" points="108.830711 6.9541276 108.830711 32.6349513 106 32.6349513 106 0 130.165224 26.04385 130.165224 0.364037507 133 0.364037507 133 33"></polygon>
                        <path d="M163,16.4989888 C163,7.13513514 170.298347,0 179.668508,0 C183.617012,0 187.198759,1.22660416 190,3.49880493 L188.435923,5.77403935 C186.140376,3.86385365 183.156268,2.68073175 179.668508,2.68073175 C171.816452,2.68073175 165.938136,8.68229454 165.938136,16.4989888 C165.938136,24.3177055 171.816452,30.3172458 179.668508,30.3172458 C183.156268,30.3172458 186.140376,29.1361464 188.48496,27.2259607 L190,29.4991726 C187.24371,31.7268799 183.617012,33 179.668508,33 C170.298347,33 163,25.8628424 163,16.4989888" id="Fill-9" fill="#FFFFFF"></path>
                        <path d="M228.641152,15.4302635 C233.892624,15.4302635 236.447031,13.1056936 236.447031,9.06251371 C236.447031,4.97280105 233.892624,2.69476389 228.641152,2.69476389 L222.879006,2.69476389 L222.879006,15.4302635 L228.641152,15.4302635 Z M227.154614,18.0795287 L222.879006,18.0795287 L222.879006,33 L220,33 L220,0 L228.736258,0 C235.519754,0 239.470763,3.3927553 239.470763,9.06251371 C239.470763,14.1304484 236.169985,17.4756369 230.498809,18.03403 L243,33 L239.421143,33 L227.154614,18.0795287 Z" id="Fill-11" fill="#FFFFFF"></path>
                        <path d="M297.090644,16.4989888 C297.090644,8.68229454 291.272945,2.68073175 283.500506,2.68073175 C275.728067,2.68073175 269.909356,8.68229454 269.909356,16.4989888 C269.909356,24.3177055 275.728067,30.3172458 283.500506,30.3172458 C291.272945,30.3172458 297.090644,24.3177055 297.090644,16.4989888 M267,16.4989888 C267,7.13513514 274.225355,0 283.500506,0 C292.771612,0 300,7.13513514 300,16.4989888 C300,25.8628424 292.771612,33 283.500506,33 C274.225355,33 267,25.8628424 267,16.4989888" id="Fill-13" fill="#FFFFFF"></path>
                        <polygon id="Fill-15" fill="#FFFFFF" points="330 0 348 0 348 2.74129665 332.904235 2.74129665 332.904235 14.5937079 344.717224 14.5937079 344.717224 17.3825714 332.904235 17.3825714 332.904235 33 330 33"></polygon>
                        <polygon id="Fill-17" fill="#FFFFFF" points="381.077089 2.74129665 372 2.74129665 372 0 393 0 393 2.74129665 383.879701 2.74129665 383.879701 33 381.077089 33"></polygon>
                        <path d="M0,69 L3.87312917,69 C7.08312227,69 9,70.5834267 9,73.3741244 C9,76.0996778 7.08312227,77.7461474 3.87312917,77.7461474 L1.29104306,77.7461474 L1.29104306,84 L0,84 L0,69 Z M3.87312917,76.5430793 C6.39615473,76.5430793 7.64575178,75.4230177 7.64575178,73.3741244 C7.64575178,71.3241804 6.39615473,70.1820538 3.87312917,70.1820538 L1.29104306,70.1820538 L1.29104306,76.5430793 L3.87312917,76.5430793 Z" id="Fill-19" fill="#FFFFFF"></path>
                        <path d="M18,84 L19.3285413,84 L21.4326581,79.4682089 L28.5470123,79.4682089 L30.6704422,84 L32,84 L24.9893269,69 L18,84 Z M24.9893269,71.8227594 L27.9737167,78.2339659 L22.0059537,78.2339659 L24.9893269,71.8227594 Z" id="Fill-21" fill="#FFFFFF"></path>
                        <polygon id="Fill-23" fill="#FFFFFF" points="41 69 41 70.2471981 45.3229947 70.2471981 45.3229947 84 46.657754 84 46.657754 70.2471981 51 70.2471981 51 69"></polygon>
                        <polygon id="Fill-25" fill="#FFFFFF" points="64 69 64 84 72 84 72 82.7538526 65.2465326 82.7538526 65.2465326 76.9013729 70.7924528 76.9013729 70.7924528 75.6321098 65.2465326 75.6321098 65.2465326 70.2471981 72 70.2471981 72 69"></polygon>
                        <path d="M89.1112451,77.2197394 L87.2511305,77.2197394 L87.2511305,84 L86,84 L86,69 L89.7986132,69 C92.7480655,69 94.4644759,70.5424489 94.4644759,73.1209022 C94.4644759,75.4251191 93.0304492,76.9434015 90.5673802,77.1976744 L96,84 L94.4463873,84 L89.1112451,77.2197394 Z M89.7574113,76.0156206 C92.039594,76.0156206 93.1530499,74.9586018 93.1530499,73.1209022 C93.1530499,71.2600869 92.039594,70.2251331 89.7574113,70.2251331 L87.2511305,70.2251331 L87.2511305,76.0156206 L89.7574113,76.0156206 Z" id="Fill-27" fill="#FFFFFF"></path>
                        <polygon id="Fill-29" fill="#FFFFFF" points="109 83.8335616 110.257364 83.8335616 110.257364 72.1613014 121 84 121 69.1664384 119.740616 69.1664384 119.740616 80.8386986 109 69"></polygon>
                        <path d="M134,76.5005137 C134,72.2437153 137.286067,69 141.502055,69 C145.717016,69 149,72.2437153 149,76.5005137 C149,80.7552572 145.717016,84 141.502055,84 C137.286067,84 134,80.7552572 134,76.5005137 M147.678586,76.5005137 C147.678586,72.9465032 145.031648,70.2196041 141.502055,70.2196041 C137.967324,70.2196041 135.322441,72.9465032 135.322441,76.5005137 C135.322441,80.0534968 137.967324,82.7793684 141.502055,82.7793684 C145.031648,82.7793684 147.678586,80.0534968 147.678586,76.5005137" id="Fill-31" fill="#FFFFFF"></path>
                        <path d="M161,81.9532845 L161.948692,81.0655524 C162.657948,81.9532845 163.892354,82.7793684 165.449698,82.7793684 C167.410463,82.7793684 168.726358,81.7899171 168.726358,80.2600178 C168.726358,78.6283992 167.734406,77.8639633 166.097586,77.1200767 L164.581489,76.459415 C162.394366,75.50798 161.526157,74.2267279 161.526157,72.4502363 C161.526157,70.3634496 163.547284,69 165.61167,69 C167.311871,69 168.726358,69.7849853 169.615694,70.8607439 L168.687123,71.7484759 C167.93662,70.8401945 167.025151,70.2196041 165.550302,70.2196041 C164.052314,70.2196041 162.778672,71.0878142 162.778672,72.5334612 C162.778672,73.7520378 163.364185,74.5781218 165.004024,75.2819371 L166.521127,75.9425988 C168.464789,76.7882047 170,77.96671 170,80.0740462 C170,82.3262552 168.31992,84 165.449698,84 C163.465795,84 161.807847,82.9458182 161,81.9532845" id="Fill-33" fill="#FFFFFF"></path>
                        <polygon id="Fill-35" fill="#FFFFFF" points="182 69 182 70.2471981 186.32071 70.2471981 186.32071 84 187.655755 84 187.655755 70.2471981 192 70.2471981 192 69"></polygon>
                        <polygon id="Fill-37" fill="#FFFFFF" points="204 69 204 84 212 84 212 82.7538526 205.244844 82.7538526 205.244844 76.9013729 210.794151 76.9013729 210.794151 75.6321098 205.244844 75.6321098 205.244844 70.2471981 212 70.2471981 212 69"></polygon>
                        <path d="M229.111245,77.2197394 L227.251131,77.2197394 L227.251131,84 L226,84 L226,69 L229.798613,69 C232.748066,69 234.467491,70.5424489 234.467491,73.1209022 C234.467491,75.4251191 233.030449,76.9434015 230.56738,77.1976744 L236,84 L234.446387,84 L229.111245,77.2197394 Z M229.757411,76.0156206 C232.040599,76.0156206 233.15305,74.9586018 233.15305,73.1209022 C233.15305,71.2600869 232.040599,70.2251331 229.757411,70.2251331 L227.251131,70.2251331 L227.251131,76.0156206 L229.757411,76.0156206 Z" id="Fill-39" fill="#FFFFFF"></path>
                        <path d="M263,81.9532845 L263.948798,81.0655524 C264.658133,81.9532845 265.891671,82.7793684 267.448183,82.7793684 C269.410173,82.7793684 270.726216,81.7899171 270.726216,80.2600178 C270.726216,78.6283992 269.735159,77.8639633 268.098155,77.1200767 L266.581889,76.459415 C264.394522,75.50798 263.52521,74.2267279 263.52521,72.4502363 C263.52521,70.3634496 265.546562,69 267.611179,69 C269.311571,69 270.726216,69.7849853 271.615651,70.8607439 L270.687982,71.7484759 C269.936389,70.8401945 269.025824,70.2196041 267.549804,70.2196041 C266.052655,70.2196041 264.778871,71.0878142 264.778871,72.5334612 C264.778871,73.7520378 265.363443,74.5781218 267.004472,75.2819371 L268.521744,75.9425988 C270.464617,76.7882047 272,77.96671 272,80.0740462 C272,82.3262552 270.319732,84 267.448183,84 C265.46607,84 263.807937,82.9458182 263,81.9532845" id="Fill-41" fill="#FFFFFF"></path>
                        <path d="M297.363189,82.2439375 C296.061693,83.3382655 294.374872,84 292.478992,84 C288.276286,84 285,80.75709 285,76.5020551 C285,72.2449651 288.276286,69 292.478992,69 C296.683747,69 299.956958,72.2449651 299.956958,76.5020551 C299.956958,78.379367 299.321582,80.0748048 298.23017,81.3766954 L300,83.1327579 L299.135069,84 L297.363189,82.2439375 Z M296.475712,81.3561447 L294.663866,79.5158241 L295.526747,78.648582 L297.320148,80.4673243 C298.146137,79.3925195 298.639065,78.027949 298.639065,76.5020551 C298.639065,72.9467735 296.002255,70.2186601 292.478992,70.2186601 C288.954704,70.2186601 286.317893,72.9467735 286.317893,76.5020551 C286.317893,80.0532265 288.954704,82.7813399 292.478992,82.7813399 C294.02439,82.7813399 295.426317,82.2439375 296.475712,81.3561447 L296.475712,81.3561447 Z" id="Fill-43" fill="#FFFFFF"></path>
                        <path d="M313,78.3388974 L313,69 L314.224842,69 L314.224842,78.4001939 C314.224842,81.3258069 315.944727,82.766796 318.490669,82.766796 C321.058219,82.766796 322.778105,81.3258069 322.778105,78.4001939 L322.778105,69 L324,69 L324,78.3388974 C324,81.9522787 321.730065,84 318.490669,84 C315.252255,84 313,81.9522787 313,78.3388974" id="Fill-45" fill="#FFFFFF"></path>
                        <path d="M335,84 L336.329654,84 L338.435957,79.4682089 L345.547778,79.4682089 L347.674412,84 L349,84 L341.989834,69 L335,84 Z M341.989834,71.8227594 L344.976474,78.2339659 L339.006245,78.2339659 L341.989834,71.8227594 Z" id="Fill-47" fill="#FFFFFF"></path>
                        <path d="M365.111245,77.2197394 L363.251131,77.2197394 L363.251131,84 L362,84 L362,69 L365.798613,69 C368.748066,69 370.467491,70.5424489 370.467491,73.1209022 C370.467491,75.4251191 369.030449,76.9434015 366.56537,77.1976744 L372,84 L370.446387,84 L365.111245,77.2197394 Z M365.759421,76.0156206 C368.039594,76.0156206 369.15305,74.9586018 369.15305,73.1209022 C369.15305,71.2600869 368.039594,70.2251331 365.759421,70.2251331 L363.251131,70.2251331 L363.251131,76.0156206 L365.759421,76.0156206 Z" id="Fill-49" fill="#FFFFFF"></path>
                        <polygon id="Fill-51" fill="#FFFFFF" points="385 69 385 84 393 84 393 82.7538526 386.245689 82.7538526 386.245689 76.9013729 391.794301 76.9013729 391.794301 75.6321098 386.245689 75.6321098 386.245689 70.2471981 393 70.2471981 393 69"></polygon>
                    </g>
                </g>
                <path d="M190.579155,142.480094 L217.978187,142.480094 C243.858345,142.480094 264.915008,121.423431 264.915008,95.5465674 C264.915008,69.6631147 243.858345,48.6097463 217.974892,48.6097463 L190.579155,48.6097463 C210.466187,54.9422305 224.910313,73.5871463 224.910313,95.5465674 C224.910313,117.502694 210.466187,136.147609 190.579155,142.480094 M217.978187,144.783115 L175.673766,144.783115 L175.673766,142.480094 C201.550629,142.480094 222.607292,121.423431 222.607292,95.5465674 C222.607292,69.6631147 201.550629,48.6097463 175.670471,48.6097463 L175.670471,46.3067253 L217.974892,46.3067253 C245.130113,46.3067253 267.218029,68.3946411 267.218029,95.5465674 C267.218029,122.695199 245.130113,144.783115 217.978187,144.783115" id="Fill-7" fill="#EDEDED"></path>
                <path d="M128.850942,98.6831568 C130.468658,123.337673 150.810363,142.480094 175.672448,142.480094 C200.534532,142.480094 220.872942,123.337673 222.490658,98.6831568 L128.850942,98.6831568 Z M175.672448,144.783115 C149.16629,144.783115 127.556111,124.049336 126.482027,97.57942 L126.4359,96.3801358 L224.9057,96.3801358 L224.859574,97.57942 C223.782195,124.049336 202.178606,144.783115 175.672448,144.783115 L175.672448,144.783115 Z" id="Fill-9" fill="#EDEDED"></path>
            </g>
        </g>
    </g>
</svg>